<svg xmlns="http://www.w3.org/2000/svg" viewBox="0 0 1000 380"><defs><style>.cls-1{fill:#f33f3f;}</style></defs><g id="Layer_7" data-name="Layer 7"><g id="pookpui"><path class="cls-1" d="M178.6,129.4a48.26,48.26,0,0,0,24.79-28.56c4.55-11.9,3.67-24.37-.9-35.74a51,51,0,0,0-3.43-7.2c-.12-.2-.25-.38-.37-.58A70.63,70.63,0,0,0,179,35.58c-15.35-11.1-35.87-14-54.61-15.47q-5.26-.42-10.58-.63l-1,0c-1.57-.06-3.14-.1-4.72-.13l-1.48,0c-1.8,0-3.6,0-5.41,0l-1.73,0c-1.36,0-2.73.06-4.09.11l-1.79.07c-1.87.09-3.75.19-5.61.32-9.68.69-18.78,7.42-18.43,17.42Q72.91,134,76.27,230.87q.47,13.49.94,27c.78,22.36,37.63,22.46,36.85,0q-2.09-60-4.18-120.07c5.15.32,10.32.59,15.49.72a113.23,113.23,0,0,0,17.28.19A102.39,102.39,0,0,0,161,135.59,82.42,82.42,0,0,0,178.6,129.4Zm-29.41-27c-1,.19-5.19.76-4.35.71-1.61.16-3.23.3-4.85.4a143.3,143.3,0,0,1-15.92,0c-5.15-.41-10.29-1-15.42-1.39q-.68-19-1.33-38c-.11-3.33-.23-6.67-.34-10l3.59.05,3.63.12,3.53.16,2.38.13c1.65.1,3.29.22,4.94.35l2.6.24,2.64.28c.73.11,3.06.42,3.73.53l.14,0c1.62.27,3.25.57,4.86.9l.24,0,1.75.38,1.51.35,1.31.32c.54.13,1.07.27,1.61.42l.93.25c.67.19,1.34.39,2,.6l.66.2c1,.33,2.93,1.14,3.15,1.19,1.32.69,2.62,1.44,4,2l.64.41c.46.4.92.8,1.37,1.21l.51.48c.75.72,1.48,1.44,2.2,2.19l0,0a49.75,49.75,0,0,1,6.29,8c.24.4.46.8.65,1.19s.23.52.34.78c.49,1.25,1,3,1.28,4,.07.31.13.62.18.92-.17-.67,0,2.55.06,3.24a15.57,15.57,0,0,1-.33,1.81,21.89,21.89,0,0,1-1.28,3.76,20.73,20.73,0,0,1-8.7,8.34,31.43,31.43,0,0,1-4.88,2Q151.88,101.89,149.19,102.42Z"/><path class="cls-1" d="M440.58,165.84c-.24-.56-.51-1.12-.79-1.66-12-24.79-39.73-48-71.24-37.4-32.44,10.91-52.5,45.78-50.5,76.68,1.47,22.68,11.84,47.95,32.33,61.72,25.79,17.33,60.07,10.3,81.15-10.09,13.4-13,20-28.68,19.38-46.63C450.38,193.84,446.34,179.4,440.58,165.84Zm-57.22-7.5c.41,0,.59,0,0,0Zm-1.48,82.87-.49-.09C381.94,241.18,383.9,241.55,381.88,241.21Zm5.26,0Zm24.94-18.59c-2.85,6.36-12.12,14-18.21,16.57,0,0-3.66,1-5,1.48l-1,.33c-1,.11-2,.15-3,.17-1.15,0-2.3,0-3.45-.08a38.08,38.08,0,0,1-6.05-1.55c.6.13-2.07-1.2-3.07-1.71,0,.11-.78-.23-1.21-.73a11.37,11.37,0,0,0-1.2-.74c.4.2.72.37,1,.53a43.72,43.72,0,0,0-3.29-3.1l-.1-.1c-.46-.56-1.19-1.45-1.34-1.66-5.6-7.77-6.93-10.37-9.38-19-1.53-5.38-1.61-5.73-1.85-10.5a45.4,45.4,0,0,1,.86-12.42,47.76,47.76,0,0,1,14.65-24.63,28.71,28.71,0,0,1,11.55-6.94,5.76,5.76,0,0,1,.92-.16l1.71,0c-1.71,0-.13-.26.86,0l0,0h0c1.2.3,2.39.62,3.57.94,1.08.57,2.18,1.13,3.26,1.68.65.33,1.23.76,1.85,1.13l.25.15c.24.2.49.39.74.58,4,3.57,7.79,7.37,9.91,12A131,131,0,0,1,413,199.28a49.43,49.43,0,0,1,1.15,12.13C414.05,215.79,413.75,218.92,412.08,222.64Z"/><path class="cls-1" d="M259.82,130.23c-15-8.8-35.53-10.74-50.95-1.73-12.76,7.46-20.34,20.16-24.59,33.25-4.68,14.42-4.72,30-2.65,44.81,4.32,31,24.31,67.73,63.67,66.13a61.87,61.87,0,0,0,48.32-27c12.35-17.86,13.11-40.65,6.36-60.44C293.52,164.23,280.1,142.11,259.82,130.23Zm-33.73,29.13Zm41.32,53.54c0,.44-.26,2.32-.28,2.68-.22,1.13-.5,2.26-.81,3.37Q265.74,221,265,223q-1.17,2.88-.21.5-.56,1.11-1.2,2.16c-.76,1.14-1.45,2.3-2.22,3.42l-.41.61-.27.27c-.9,1-1.82,1.89-2.81,2.78-.26.24-2.09,1.59-2.41,1.89a44.68,44.68,0,0,1-4.57,2.48c1-.63-2.88.51-4.26,1.06-1.27-.13-5-.08-4.7.22-1.94-.49-4.68-1.27-3.87-.83-.7-.32-1.39-.66-2.06-1-.15-.09-2.83-1.82-2.78-1.68-.62-.5-1.23-1-1.81-1.55-.42-.38-3.24-3.53-3.3-3.43a53.17,53.17,0,0,1-4-6.24c-.33-.62-.64-1.25-1-1.89-.09-.35-1.11-2.81-1.18-3-.91-2.53-1.68-5.1-2.33-7.69-.26-1-.49-2-.71-3.07-.11-.52-.69-3.93-.8-4.32a114.09,114.09,0,0,1-.66-22.32c0-.53.1-1.07.15-1.61.18-.94.31-1.89.52-2.82a84.58,84.58,0,0,1,3-9.88,8.89,8.89,0,0,1,.41-.9c-.09.17-.2.35-.32.56.42-.72.72-1.5,1.17-2.21.67-1.06,1.34-2.16,2-3.24a9.56,9.56,0,0,1,.88-1.1c1.68-1.38,4.88-3.57,1.61-1.84.71-.37,1.39-.75,2.07-1.13.23-.07.56-.17,1.05-.34l.55-.21.54.06c.58,0,1.18.05,1.77.05a30.57,30.57,0,0,0,3.22.61c.42.07.71.11.94.13s.38.22.68.37c1.41.72,2.78,1.51,4.18,2.25l.78.39.63.58c2.37,2.11,4.61,4.21,6.78,6.5.09.11.17.18.25.27l.31.44c1.06,1.42,2.11,2.84,3.1,4.3,1.61,2.39,3.09,4.85,4.47,7.35,1,1.91,2,3.85,2.95,5.79-1.24-2.5,1,2.39,1.45,3.5.66,1.68,1.29,3.37,1.82,5.08C267,201.77,267.58,205.58,267.41,212.9Z"/><path class="cls-1" d="M559.8,206.91a244.38,244.38,0,0,0-27.29-21.19l32.8-41.13c6-7.54,1.26-19.56-6.61-23.93-9.45-5.25-19.19-1.28-25.22,6.27q-12.18,15.3-24.38,30.58-2-45.84-2.7-91.71c-.34-22.49-37.19-22.56-36.85,0,1,65.13,3.83,130.37,9.21,195.3.78,9.42,7.91,17.5,18.43,17.5,9.36,0,19.21-8,18.42-17.5q-1.92-23.13-3.4-46.32a188.26,188.26,0,0,1,21.53,16.87c6.51,6,10.53,12.07,16.14,20.76,3.4,5.26,6.67,10.61,9.71,16.06,4.65,8.35,16.88,10.9,25.21,6.28,8.91-4.95,11.28-15.55,6.61-23.93C582.86,235.46,573,219.07,559.8,206.91Z"/><path class="cls-1" d="M719.73,190.19c-3.58-20.39-18.86-40.76-37.33-49.8-15.6-7.63-35.56-10.14-51.57-4.57a17.59,17.59,0,0,0-12.33-5c-9.51,0-19,8.44-18.43,18.43q5.37,88.82,10.75,177.64l1.53,25.38c.6,9.94,8,18.43,18.43,18.43,9.51,0,19-8.44,18.43-18.43q-2.54-41.71-5.05-83.43A54.77,54.77,0,0,0,679.21,270c13.2-3.91,22.76-11.52,30.54-22.61,11.41-16.28,12.63-35.9,10.25-55C719.94,191.63,719.86,190.91,719.73,190.19Zm-76.82-17.57,0,.06-.19,0A.42.42,0,0,0,642.91,172.62Zm-.38.5v0c0-.07,0-.16.06-.24ZM658.32,236c.54.24.62.38,0,0ZM686,211.5a18.88,18.88,0,0,1-.56,5.22,50.09,50.09,0,0,1-2.09,7.19c.27-.95-1.92,3.33-2.49,4.3-.29.49-.48.83-.61,1.1s-.38.37-.66.68c-.81.88-1.64,1.75-2.43,2.64a7.84,7.84,0,0,1-.67.64l1-.47c-.39.18-.77.38-1.15.59a2.72,2.72,0,0,1-1.19.68c-.59.35-1.18.71-1.79,1,.42-.39-4.73,1.4-5.64,1.66a8.49,8.49,0,0,1-1,.18c-.93,0-1.88,0-2.8.14l-1.06.13-.42-.09a30.69,30.69,0,0,1-4.23-1.14c-.29-.18-.68-.45-1.22-.84,1.1.8-1.29-1.3-2.36-2.29a13.84,13.84,0,0,1-1.07-1.34c-.75-1.24-1.52-2.46-2.2-3.74-.48-.89-.92-1.8-1.35-2.72-.2-.43-.45-1-.52-1.17A117.24,117.24,0,0,1,644.44,206c-.59-2.84-1.1-5.69-1.55-8.56-.1-.67-.2-1.34-.29-2l-.08-.67c-.31-3.37-.66-6.73-.9-10.11-.18-2.57-.18-5.1-.19-7.68v-.07c0-.07,0-.12.07-.2.36-1.12.75-2.33,1-3.49l0,0c-.77,3.72-.23,1.5.59-.49h-.23l.09-.1a1.43,1.43,0,0,0,.24-.16l.13-.28a3.94,3.94,0,0,1,.29-.29,1.63,1.63,0,0,0,.34-.06l.18-.13a.17.17,0,0,1,0,.1,4.53,4.53,0,0,0,.87-.32,14,14,0,0,1,2-.55c.75,0,1.51-.08,2.25-.1a33.22,33.22,0,0,1,7.67.52c1.33.26,2.67.59,4,.95,0,0,3.69,1.24,3.58,1.09a61.54,61.54,0,0,1,6.89,3.9l.45.27a3.35,3.35,0,0,0,.37.35c1.36,1.23,2.65,2.49,3.93,3.8.7.71,1.32,1.51,2,2.25-2.77-3.12.09.14.54.86,1.17,1.87,2.34,3.71,3.36,5.66a20.58,20.58,0,0,0,1.25,2.59c.49,1.43,1,2.83,1.45,4.29a39.8,39.8,0,0,1,1,4.21A57.25,57.25,0,0,1,686,211.5Z"/><path class="cls-1" d="M856.35,188.82c-.23-1.65-.47-3.29-.7-4.94l-.38-2.73c-.37-2.71-.73-5.41-1.09-8.12q-1-7.93-2-15.88c-.61-5-1.22-10-1.78-15-1.09-9.66-7.69-18-18.43-18-9.12,0-19.52,8.27-18.43,18,2.06,18.23,4.47,36.43,7.07,54.59,1.27,8.89,2.34,18.14,3.7,27.4a14.51,14.51,0,0,0,0,2,23.25,23.25,0,0,1-.27,3.27c-.26.59-.5,1.12-.6,1.37-.58.78-1.08,1.46-.84,1.29a16.9,16.9,0,0,0-1.24,1.32l-.4.34c-.39.26-.78.54-1.18.78-1.14.61-2.26,1.22-3.4,1.81.43-.3-3.11,1.2-3.88,1.42-1.43.42-2.89.71-4.33,1.07-.61.12-1.23.22-1.84.33l-.75.07c-2,0-4.07.21-6.12.15-.92,0-6.56-.79-3.51-.2-1.24-.23-2.48-.46-3.71-.77-1.45-.37-2.88-.81-4.3-1.31.36,0-3.21-1.65-3.8-2s-1-.67-1.55-1c-.18-.16-.4-.35-.71-.6s-1.86-2-2.59-2.74c-.57-.93-1.84-2.88-2-3.21a27,27,0,0,1-2.28-4.87,102.71,102.71,0,0,1-4.37-14.85c-2-9.16-2.75-16.76-3.07-27.24A207.86,207.86,0,0,1,769,146.64c1.31-9.65-9.41-18-18.43-18-11,0-17.11,8.31-18.42,18-3.89,28.61-2.76,61.5,8.4,88.4,7.56,18.23,20,31.53,39.67,37.41,17,5.07,35.88,3.32,51.92-3.76,1-.45,2-.94,3-1.45,4.06,7.84,12.21,12.92,21.65,10.38,8.86-2.37,16.49-13,12.87-22.13C861.43,234.75,859.51,210.67,856.35,188.82Z"/><path class="cls-1" d="M929.56,255.27a154,154,0,0,1-4.75-22.71c-.23-1.51-.45-3-.66-4.54-.08-.64-.38-2.9-.4-3.07-.32-2.6-.62-5.21-.9-7.81-.58-5.47-1-11-1.48-16.43q-2.49-28.62-5-57.24C915.53,133.55,908.54,125,898,125c-9.3,0-19.3,8.45-18.43,18.43q2.55,29.21,5.08,58.43c1.83,21,3.12,42.94,9.4,63.17C901,287.65,936.61,278,929.56,255.27Z"/><path class="cls-1" d="M905.1,113.13C912.17,109,916,101.79,916.66,93.8c1.1-12.89-10.37-22.11-22.49-21.65-10.51.4-20.23,5.91-23.17,16.63-2.11,7.65-.33,16.21,5.49,21.76,4.46,4.25,10.4,5.92,16.45,5.93A25.42,25.42,0,0,0,905.1,113.13Z"/><path class="cls-1" d="M326.34,94.72c-6.93-6-16-7.51-24.74-5.37-14.13,3.45-19.83,19-15,31.72,4.2,11,13.54,19.42,26,18.72,8.9-.51,17.39-5.48,21.21-13.66,2.92-6.28,2.57-13.21.42-19.65A28.64,28.64,0,0,0,326.34,94.72Z"/><path class="cls-1" d="M341.17,91.08c3.26,8.61,10.55,14.16,19.29,16.4,14.08,3.62,26.43-7.38,28.17-20.9,1.51-11.72-2.79-23.52-14.12-28.78-8.09-3.75-17.92-3.37-25.14,2.05-5.55,4.16-8.5,10.43-9.64,17.13A28.66,28.66,0,0,0,341.17,91.08Z"/><path class="cls-1" d="M448.52,103.72c3.84-8.36,2.68-17.46-1.86-25.25C439.35,65.9,422.85,64.83,412,73.09c-9.4,7.16-14.78,18.5-10.57,30.26,3,8.4,10.18,15.13,19.11,16.46,6.85,1,13.4-1.27,19-5.16A28.66,28.66,0,0,0,448.52,103.72Z"/></g></g></svg>
